<svg width="406" height="77" viewBox="0 0 406 77" fill="none" xmlns="http://www.w3.org/2000/svg">
<path d="M16.1051 73H13.0816V3.46094H16.1051V73ZM10.0582 73H7.03476V3.46094H10.0582V73ZM4.01132 73H0.987885V3.46094H4.01132V73ZM22.1519 57.8828H54.318V60.9062H22.1519V63.9297H54.318V66.9531H22.1519V69.9766H54.318V73H19.1285V3.46094H54.318V6.48438H22.1519V9.50781H54.318V12.5312H22.1519V15.5547H54.318V18.5781H22.1519V30.6719H38.6549V33.6953H22.1519V36.7188H38.6549V39.7422H22.1519V42.7656H38.6549V45.7891H22.1519V57.8828ZM85.5853 30.6719H80.5043C78.3487 30.6719 76.795 30.126 75.8432 29.0342C74.8913 27.9144 74.4154 26.4447 74.4154 24.625C74.4154 20.5938 77.4249 18.5781 83.4437 18.5781C89.0987 18.5781 93.3539 19.418 96.2094 21.0977L93.7738 22.9453C91.8142 22.0495 88.3708 21.6016 83.4437 21.6016C81.0362 21.6016 79.4125 21.8675 78.5727 22.3994C77.7608 22.9313 77.3549 23.6732 77.3549 24.625C77.3549 25.5768 77.5788 26.3187 78.0268 26.8506C78.4747 27.3825 79.3005 27.6484 80.5043 27.6484H85.7113C89.4906 27.6484 92.892 28.2923 95.9154 29.5801C98.9669 30.8678 101.472 32.6315 103.432 34.8711C105.392 37.0827 106.889 39.6442 107.925 42.5557C108.961 45.4391 109.479 48.5326 109.479 51.8359C109.479 54.5234 109.101 57.071 108.345 59.4785C107.589 61.8861 106.441 64.0977 104.902 66.1133C103.39 68.1289 101.556 69.8786 99.4008 71.3623C97.2732 72.818 94.7256 73.9518 91.7582 74.7637C88.8187 75.6035 85.6273 76.0234 82.184 76.0234C76.781 76.0234 71.7139 75.1976 66.9828 73.5459C62.2797 71.9222 58.3604 69.6406 55.225 66.7012L57.6605 64.8955C60.516 67.471 64.0853 69.4727 68.3685 70.9004C72.6797 72.3001 77.2849 73 82.184 73C86.0193 73 89.4766 72.4541 92.556 71.3623C95.6635 70.2425 98.211 68.7168 100.199 66.7852C102.214 64.8535 103.754 62.6139 104.818 60.0664C105.91 57.5189 106.455 54.7754 106.455 51.8359C106.455 47.9447 105.672 44.4313 104.104 41.2959C102.536 38.1325 100.143 35.571 96.9232 33.6113C93.7318 31.6517 89.9525 30.6719 85.5853 30.6719ZM80.5043 33.6953H85.2914C90.9743 33.6953 95.4115 35.431 98.6029 38.9023C101.822 42.3737 103.432 46.6849 103.432 51.8359C103.432 57.071 101.57 61.4102 97.8471 64.8535C94.1238 68.2689 88.9027 69.9766 82.184 69.9766C77.7048 69.9766 73.5196 69.3607 69.6283 68.1289C65.737 66.8971 62.5036 65.1615 59.9281 62.9219L62.2797 61.0322C64.5753 62.9079 67.4587 64.3636 70.9301 65.3994C74.4294 66.4352 78.1807 66.9531 82.184 66.9531C88.0909 66.9531 92.598 65.5394 95.7055 62.7119C98.8409 59.8844 100.409 56.2591 100.409 51.8359C100.409 47.4688 99.0928 43.8574 96.4613 41.002C93.8578 38.1465 90.1205 36.7188 85.2494 36.7188H80.5043C76.4171 36.7188 73.3516 35.599 71.308 33.3594C69.2644 31.1198 68.2426 28.2083 68.2426 24.625C68.2426 21.0417 69.5023 18.1302 72.0219 15.8906C74.5694 13.651 78.3767 12.5312 83.4437 12.5312C86.9991 12.5312 90.3025 12.9512 93.3539 13.791C96.4053 14.6029 98.9249 15.7786 100.912 17.3184L98.5189 19.166C95.0196 16.7585 89.9945 15.5547 83.4437 15.5547C79.2165 15.5547 76.1231 16.3945 74.1635 18.0742C72.2318 19.7259 71.266 21.9095 71.266 24.625C71.266 27.3685 71.9799 29.5661 73.4076 31.2178C74.8633 32.8695 77.2289 33.6953 80.5043 33.6953ZM80.5043 39.7422H85.1234C89.2107 39.7422 92.2761 40.876 94.3197 43.1436C96.3633 45.4111 97.3852 48.3086 97.3852 51.8359C97.3852 55.4193 96.1114 58.3307 93.5639 60.5703C91.0443 62.8099 87.251 63.9297 82.184 63.9297C78.6286 63.9297 75.3113 63.5238 72.2318 62.7119C69.1804 61.8721 66.6609 60.6823 64.6732 59.1426L67.0668 57.2949C70.5661 59.7025 75.6052 60.9062 82.184 60.9062C86.4112 60.9062 89.4906 60.0804 91.4223 58.4287C93.3819 56.749 94.3617 54.5514 94.3617 51.8359C94.3617 49.1204 93.6338 46.9368 92.1781 45.2852C90.7224 43.6055 88.3568 42.7656 85.0814 42.7656H80.5043C74.7654 42.7656 70.2722 41.0579 67.0248 37.6426C63.8054 34.1992 62.1957 29.86 62.1957 24.625C62.1957 19.39 64.0574 15.0648 67.7807 11.6494C71.504 8.20605 76.725 6.48438 83.4437 6.48438C87.9229 6.48438 92.0941 7.10026 95.9574 8.33203C99.8487 9.5638 103.082 11.2995 105.658 13.5391L103.306 15.4287C101.01 13.5531 98.127 12.0973 94.6557 11.0615C91.1843 10.0257 87.447 9.50781 83.4437 9.50781C77.5368 9.50781 73.0157 10.9215 69.8803 13.749C66.7728 16.5765 65.2191 20.2018 65.2191 24.625C65.2191 29.0202 66.5349 32.6455 69.1664 35.501C71.7979 38.3285 75.5772 39.7422 80.5043 39.7422ZM80.5043 45.7891H85.1234C87.279 45.7891 88.8327 46.349 89.7846 47.4688C90.7364 48.5885 91.2123 50.0443 91.2123 51.8359C91.2123 55.8672 88.2029 57.8828 82.184 57.8828C76.501 57.8828 72.2318 57.043 69.3764 55.3633L71.8119 53.5156C73.7715 54.4115 77.2289 54.8594 82.184 54.8594C84.5915 54.8594 86.2012 54.5934 87.0131 54.0615C87.8529 53.5296 88.2728 52.7878 88.2728 51.8359C88.2728 50.9121 88.0349 50.1842 87.559 49.6523C87.1111 49.0924 86.2712 48.8125 85.0394 48.8125H80.5043C76.641 48.8125 73.1417 48.1826 70.0062 46.9229C66.8988 45.6631 64.3373 43.9274 62.3217 41.7158C60.334 39.5042 58.8083 36.9427 57.7445 34.0312C56.6807 31.1198 56.1488 27.9844 56.1488 24.625C56.1488 21.9375 56.5268 19.39 57.2826 16.9824C58.0385 14.5749 59.1723 12.3633 60.684 10.3477C62.2237 8.33203 64.0574 6.59635 66.185 5.14062C68.3406 3.6569 70.8881 2.50911 73.8275 1.69727C76.795 0.857422 80.0004 0.4375 83.4437 0.4375C88.8467 0.4375 93.8998 1.26335 98.6029 2.91504C103.306 4.53874 107.225 6.82031 110.361 9.75977L107.925 11.5654C105.07 8.98991 101.5 7.00228 97.2172 5.60254C92.934 4.1748 88.3428 3.46094 83.4437 3.46094C79.6085 3.46094 76.1371 4.02083 73.0297 5.14062C69.9503 6.23242 67.4027 7.74414 65.3871 9.67578C63.3995 11.6074 61.8598 13.847 60.768 16.3945C59.7042 18.9421 59.1723 21.6855 59.1723 24.625C59.1723 28.5723 59.9701 32.1276 61.5658 35.291C63.1615 38.4544 65.5971 41.002 68.8725 42.9336C72.1478 44.8372 76.0251 45.7891 80.5043 45.7891ZM110.554 6.48438V3.46094H155.905V6.48438H110.554ZM110.554 12.5312V9.50781H155.905V12.5312H110.554ZM110.554 18.5781V15.5547H155.905V18.5781H143.812V73H140.788V18.5781H137.765V73H134.741V18.5781H131.718V73H128.695V18.5781H125.671V73H122.648V18.5781H110.554ZM188.517 52.5918L189.734 49.5684H200.064L201.282 52.5918H188.517ZM186.165 58.6387L187.341 55.6152H202.416L203.718 58.6387H186.165ZM183.813 64.6855L184.989 61.6621H204.81L206.069 64.6855H183.813ZM159.248 73H155.973L183.478 3.46094H186.753L214.216 73H210.982L185.115 7.53418L159.248 73ZM185.493 14.7148L187.215 18.5781L165.715 73H162.481L185.493 14.7148ZM188.853 22.6934L190.448 26.8506L172.266 73H168.99L188.853 22.6934ZM192.044 31.0078L193.64 35.249L178.732 73H175.499L192.044 31.0078ZM233.742 73H230.467L203.004 3.46094H206.237L233.742 73ZM199.729 3.46094L227.233 73H224L196.495 3.46094H199.729ZM193.22 3.46094L220.725 73H217.449L189.986 3.46094H193.22ZM252.874 54.8594V21.6016C252.874 21.6016 259.747 21.6016 273.492 21.6016C276.823 21.6016 279.679 23.2393 282.058 26.5146C284.466 29.762 285.67 33.6673 285.67 38.2305C285.67 42.8216 284.466 46.7409 282.058 49.9883C279.679 53.2357 276.823 54.8594 273.492 54.8594H252.874ZM255.897 51.8359H273.492C275.984 51.8359 278.111 50.5062 279.875 47.8467C281.666 45.1872 282.562 41.9818 282.562 38.2305C282.562 34.4512 281.666 31.2458 279.875 28.6143C278.111 25.9548 275.984 24.625 273.492 24.625H255.897V51.8359ZM249.85 57.8828H273.492C277.663 57.8828 281.247 55.9652 284.242 52.1299C287.265 48.2666 288.777 43.6335 288.777 38.2305C288.777 34.6751 288.077 31.3857 286.678 28.3623C285.306 25.3389 283.444 22.9593 281.093 21.2236C278.769 19.46 276.235 18.5781 273.492 18.5781H249.85V57.8828ZM246.827 60.9062V15.5547H273.492C276.767 15.5547 279.819 16.5625 282.646 18.5781C285.474 20.5938 287.713 23.3512 289.365 26.8506C291.045 30.3219 291.885 34.1152 291.885 38.2305C291.885 42.3177 291.045 46.111 289.365 49.6104C287.713 53.1097 285.474 55.8672 282.646 57.8828C279.819 59.8984 276.767 60.9062 273.492 60.9062H246.827ZM243.804 63.9297H273.492C277.327 63.9297 280.883 62.7819 284.158 60.4863C287.461 58.1908 290.093 55.0693 292.053 51.1221C294.012 47.1748 294.992 42.8776 294.992 38.2305C294.992 33.6113 294.012 29.3281 292.053 25.3809C290.093 21.4056 287.461 18.2702 284.158 15.9746C280.855 13.679 277.299 12.5312 273.492 12.5312H243.804V63.9297ZM240.78 66.9531V9.50781H273.492C277.859 9.50781 281.932 10.7956 285.712 13.3711C289.491 15.9186 292.5 19.404 294.74 23.8271C296.98 28.2503 298.099 33.0514 298.099 38.2305C298.099 43.4095 296.98 48.2106 294.74 52.6338C292.5 57.057 289.491 60.5563 285.712 63.1318C281.932 65.6794 277.859 66.9531 273.492 66.9531H240.78ZM237.757 69.9766H273.492C277.159 69.9766 280.701 69.1367 284.116 67.457C287.531 65.7773 290.485 63.5238 292.976 60.6963C295.468 57.8688 297.456 54.4954 298.939 50.5762C300.451 46.6289 301.207 42.5137 301.207 38.2305C301.207 33.9473 300.451 29.846 298.939 25.9268C297.456 22.0075 295.468 18.6341 292.976 15.8066C290.485 12.9512 287.531 10.6836 284.116 9.00391C280.701 7.32422 277.159 6.48438 273.492 6.48438H237.757V69.9766ZM273.492 73H234.733V3.46094H273.492C278.951 3.46094 284.046 5.01465 288.777 8.12207C293.508 11.2295 297.274 15.4567 300.073 20.8037C302.901 26.1507 304.314 31.9596 304.314 38.2305C304.314 42.9336 303.474 47.4408 301.795 51.752C300.143 56.0352 297.931 59.7305 295.16 62.8379C292.388 65.9453 289.099 68.4229 285.292 70.2705C281.512 72.0902 277.579 73 273.492 73ZM324.832 3.46094H327.855V73H324.832V3.46094ZM318.785 3.46094H321.808V73H318.785V3.46094ZM312.738 3.46094H315.761V73H312.738V3.46094ZM306.691 3.46094H309.714V73H306.691V3.46094ZM356.015 26.4727C352.768 29.7201 351.144 33.6393 351.144 38.2305C351.144 42.8216 352.768 46.7409 356.015 49.9883C359.262 53.2357 363.182 54.8594 367.773 54.8594C372.364 54.8594 376.283 53.2357 379.531 49.9883C382.778 46.7409 384.402 42.8216 384.402 38.2305C384.402 33.6393 382.778 29.7201 379.531 26.4727C376.283 23.2253 372.364 21.6016 367.773 21.6016C363.182 21.6016 359.262 23.2253 356.015 26.4727ZM349.674 45.873C348.638 43.4375 348.121 40.89 348.121 38.2305C348.121 35.571 348.638 33.0374 349.674 30.6299C350.71 28.1943 352.11 26.0947 353.873 24.3311C355.637 22.5674 357.723 21.1676 360.13 20.1318C362.566 19.096 365.113 18.5781 367.773 18.5781C370.432 18.5781 372.966 19.096 375.373 20.1318C377.809 21.1676 379.909 22.5674 381.672 24.3311C383.436 26.0947 384.836 28.1943 385.871 30.6299C386.907 33.0374 387.425 35.571 387.425 38.2305C387.425 40.89 386.907 43.4375 385.871 45.873C384.836 48.2806 383.436 50.3662 381.672 52.1299C379.909 53.8936 377.809 55.2933 375.373 56.3291C372.966 57.3649 370.432 57.8828 367.773 57.8828C365.113 57.8828 362.566 57.3649 360.13 56.3291C357.723 55.2933 355.637 53.8936 353.873 52.1299C352.11 50.3662 350.71 48.2806 349.674 45.873ZM348.121 26.8506C346.105 30.3219 345.097 34.1152 345.097 38.2305C345.097 42.3457 346.105 46.139 348.121 49.6104C350.164 53.0817 352.922 55.8392 356.393 57.8828C359.864 59.8984 363.658 60.9062 367.773 60.9062C371.888 60.9062 375.681 59.8984 379.153 57.8828C382.624 55.8392 385.368 53.0817 387.383 49.6104C389.427 46.139 390.449 42.3457 390.449 38.2305C390.449 34.1152 389.427 30.3219 387.383 26.8506C385.368 23.3792 382.624 20.6357 379.153 18.6201C375.681 16.5765 371.888 15.5547 367.773 15.5547C363.658 15.5547 359.864 16.5765 356.393 18.6201C352.922 20.6357 350.164 23.3792 348.121 26.8506ZM345.517 51.1221C343.221 47.1748 342.074 42.8776 342.074 38.2305C342.074 33.5833 343.221 29.2861 345.517 25.3389C347.813 21.3916 350.934 18.2702 354.881 15.9746C358.829 13.679 363.126 12.5312 367.773 12.5312C372.42 12.5312 376.717 13.679 380.664 15.9746C384.612 18.2702 387.733 21.3916 390.029 25.3389C392.324 29.2861 393.472 33.5833 393.472 38.2305C393.472 42.8776 392.324 47.1748 390.029 51.1221C387.733 55.0693 384.612 58.1908 380.664 60.4863C376.717 62.7819 372.42 63.9297 367.773 63.9297C363.126 63.9297 358.829 62.7819 354.881 60.4863C350.934 58.1908 347.813 55.0693 345.517 51.1221ZM341.318 27.0605C339.806 30.6159 339.05 34.3392 339.05 38.2305C339.05 42.1217 339.806 45.8451 341.318 49.4004C342.829 52.9557 344.859 56.0212 347.407 58.5967C349.982 61.1442 353.048 63.1738 356.603 64.6855C360.158 66.1973 363.882 66.9531 367.773 66.9531C371.664 66.9531 375.387 66.1973 378.943 64.6855C382.498 63.1738 385.55 61.1442 388.097 58.5967C390.673 56.0212 392.716 52.9557 394.228 49.4004C395.74 45.8451 396.496 42.1217 396.496 38.2305C396.496 34.3392 395.74 30.6159 394.228 27.0605C392.716 23.5052 390.673 20.4538 388.097 17.9062C385.55 15.3307 382.498 13.2871 378.943 11.7754C375.387 10.2637 371.664 9.50781 367.773 9.50781C363.882 9.50781 360.158 10.2637 356.603 11.7754C353.048 13.2871 349.982 15.3307 347.407 17.9062C344.859 20.4538 342.829 23.5052 341.318 27.0605ZM340.268 54.1455C337.441 49.2744 336.027 43.9694 336.027 38.2305C336.027 32.4915 337.441 27.1865 340.268 22.3154C343.123 17.4443 346.987 13.5951 351.858 10.7676C356.729 7.91211 362.034 6.48438 367.773 6.48438C373.512 6.48438 378.817 7.91211 383.688 10.7676C388.559 13.5951 392.408 17.4443 395.236 22.3154C398.091 27.1865 399.519 32.4915 399.519 38.2305C399.519 43.9694 398.091 49.2744 395.236 54.1455C392.408 59.0166 388.559 62.8799 383.688 65.7354C378.817 68.5628 373.512 69.9766 367.773 69.9766C362.034 69.9766 356.729 68.5628 351.858 65.7354C346.987 62.8799 343.123 59.0166 340.268 54.1455ZM335.733 24.751C333.913 29.0342 333.003 33.5273 333.003 38.2305C333.003 42.9336 333.913 47.4408 335.733 51.752C337.58 56.0352 340.058 59.7305 343.165 62.8379C346.273 65.9453 349.968 68.4229 354.251 70.2705C358.563 72.0902 363.07 73 367.773 73C372.476 73 376.969 72.0902 381.252 70.2705C385.564 68.4229 389.273 65.9453 392.38 62.8379C395.488 59.7305 397.951 56.0352 399.771 51.752C401.619 47.4408 402.542 42.9336 402.542 38.2305C402.542 33.5273 401.619 29.0342 399.771 24.751C397.951 20.4398 395.488 16.7305 392.38 13.623C389.273 10.5156 385.564 8.05208 381.252 6.23242C376.969 4.38477 372.476 3.46094 367.773 3.46094C363.07 3.46094 358.563 4.38477 354.251 6.23242C349.968 8.05208 346.273 10.5156 343.165 13.623C340.058 16.7305 337.58 20.4398 335.733 24.751ZM332.961 52.9277C330.974 48.2526 329.98 43.3535 329.98 38.2305C329.98 33.1074 330.974 28.2223 332.961 23.5752C334.977 18.9001 337.664 14.8828 341.024 11.5234C344.411 8.13607 348.428 5.44857 353.076 3.46094C357.751 1.44531 362.65 0.4375 367.773 0.4375C372.896 0.4375 377.781 1.44531 382.428 3.46094C387.103 5.44857 391.121 8.13607 394.48 11.5234C397.867 14.8828 400.555 18.9001 402.542 23.5752C404.558 28.2223 405.566 33.1074 405.566 38.2305C405.566 43.3535 404.558 48.2526 402.542 52.9277C400.555 57.5749 397.867 61.5921 394.48 64.9795C391.121 68.3389 387.103 71.0124 382.428 73C377.781 75.0156 372.896 76.0234 367.773 76.0234C362.65 76.0234 357.751 75.0156 353.076 73C348.428 71.0124 344.411 68.3389 341.024 64.9795C337.664 61.5921 334.977 57.5749 332.961 52.9277Z" fill="#00C17C"/>
</svg>
