<svg width="28" height="28" viewBox="0 0 28 28" fill="none" xmlns="http://www.w3.org/2000/svg">
<g clip-path="url(#clip0_333_2)">
<path d="M14.0577 18.5896C16.6027 18.5896 18.6657 16.5353 18.6657 14.0013C18.6657 11.4673 16.6027 9.41309 14.0577 9.41309C11.5128 9.41309 9.44971 11.4673 9.44971 14.0013C9.44971 16.5353 11.5128 18.5896 14.0577 18.5896Z" fill="#23DCD1"/>
<path opacity="0.4" d="M14.0548 23.94C19.5688 23.94 24.0388 19.4892 24.0388 13.9988C24.0388 8.50844 19.5688 4.05762 14.0548 4.05762C8.54074 4.05762 4.07074 8.50844 4.07074 13.9988C4.07074 19.4892 8.54074 23.94 14.0548 23.94Z" stroke="#23DCD1" stroke-width="1.53334"/>
<path opacity="0.2" d="M14.056 27C21.2666 27 27.112 21.1797 27.112 14C27.112 6.8203 21.2666 1 14.056 1C6.84537 1 1 6.8203 1 14C1 21.1797 6.84537 27 14.056 27Z" stroke="#23DCD1" stroke-width="1.53334"/>
<path opacity="0.65" d="M14.0541 20.8823C17.8715 20.8823 20.9661 17.801 20.9661 14C20.9661 10.199 17.8715 7.11761 14.0541 7.11761C10.2367 7.11761 7.14209 10.199 7.14209 14C7.14209 17.801 10.2367 20.8823 14.0541 20.8823Z" stroke="#23DCD1" stroke-width="1.53334"/>
</g>
<defs>
<clipPath id="clip0_333_2">
<rect width="28" height="28" fill="white"/>
</clipPath>
</defs>
</svg>
