<svg xmlns="http://www.w3.org/2000/svg" viewBox="0 0 33.39 14"><g id="Capa_2" data-name="Capa 2"><g id="logo"><path d="M14.19,12.16a1.66,1.66,0,0,0-1.66-1.66H1.66a1.66,1.66,0,0,0,0,3.32H12.53A1.66,1.66,0,0,0,14.19,12.16Z" style="fill:#7367f0"/><path d="M32.52.19a1.68,1.68,0,0,0-2.25.68L25.09,9.14,20.23.77A1.72,1.72,0,0,0,18.77.08H7.82a1.66,1.66,0,0,0,0,3.32h9.53a1,1,0,0,1,.78.36l5.39,9.3a1.71,1.71,0,0,0,.71.75,1.66,1.66,0,0,0,2.25-.68L33.19,2.44A1.67,1.67,0,0,0,32.52.19Z" style="fill:#7367f0"/><path d="M19.25,13.83a1.65,1.65,0,0,0,.79-2.2s-2.38-4-3.24-5.74a1.12,1.12,0,0,0-1-.63H4.48a1.66,1.66,0,0,0,0,3.32H14a.65.65,0,0,1,.58.29C15.41,10.55,17,13,17,13.05A1.65,1.65,0,0,0,19.25,13.83Z" style="fill:#7367f0"/></g></g></svg>