<svg width="48" height="57" viewBox="0 0 48 57" fill="none" xmlns="http://www.w3.org/2000/svg">
<path d="M23.9398 4.55979C25.1991 4.55979 26.2198 3.53899 26.2198 2.27979C26.2198 1.02058 25.1991 -0.000214815 23.9398 -0.000214815V4.55979ZM34.1998 10.2598C34.1998 9.00057 33.1791 7.97978 31.9198 7.97978C30.6606 7.97978 29.6398 9.00057 29.6398 10.2598H34.1998ZM9.11984 27.3598C9.11984 26.1006 8.09905 25.0798 6.83984 25.0798C5.58063 25.0798 4.55984 26.1006 4.55984 27.3598H9.11984ZM43.3198 27.3598C43.3198 26.1006 42.2991 25.0798 41.0398 25.0798C39.7806 25.0798 38.7598 26.1006 38.7598 27.3598H43.3198ZM16.0475 52.4398C14.7883 52.4398 13.7675 53.4606 13.7675 54.7198C13.7675 55.979 14.7883 56.9998 16.0475 56.9998V52.4398ZM31.8322 56.9998C33.0914 56.9998 34.1122 55.979 34.1122 54.7198C34.1122 53.4606 33.0914 52.4398 31.8322 52.4398V56.9998ZM29.6398 10.2598V26.2198H34.1998V10.2598H29.6398ZM18.2398 26.2198V10.2598H13.6798V26.2198H18.2398ZM23.9398 31.9198C20.7918 31.9198 18.2398 29.3678 18.2398 26.2198H13.6798C13.6798 31.8862 18.2734 36.4798 23.9398 36.4798V31.9198ZM29.6398 26.2198C29.6398 29.3678 27.0879 31.9198 23.9398 31.9198V36.4798C29.6063 36.4798 34.1998 31.8862 34.1998 26.2198H29.6398ZM23.9398 -0.000214815C18.2734 -0.000214815 13.6798 4.59335 13.6798 10.2598H18.2398C18.2398 7.11177 20.7918 4.55979 23.9398 4.55979V-0.000214815ZM23.9398 42.0169C15.7344 42.0169 9.11984 35.4342 9.11984 27.3598H4.55984C4.55984 37.9936 13.2572 46.5769 23.9398 46.5769V42.0169ZM38.7598 27.3598C38.7598 35.4342 32.1453 42.0169 23.9398 42.0169V46.5769C34.6225 46.5769 43.3198 37.9936 43.3198 27.3598H38.7598ZM21.6598 44.2969V54.7198H26.2198V44.2969H21.6598ZM23.9398 52.4398H16.0475V56.9998H23.9398V52.4398ZM23.9398 56.9998H31.8322V52.4398H23.9398V56.9998Z" fill="white"/>
</svg>
