<svg width="23" height="26" viewBox="0 0 23 26" fill="none" xmlns="http://www.w3.org/2000/svg">
<path d="M12.3467 2.02979C12.899 2.02979 13.3467 1.58207 13.3467 1.02979C13.3467 0.4775 12.899 0.0297852 12.3467 0.0297852V2.02979ZM16.8467 4.52978C16.8467 3.9775 16.399 3.52978 15.8467 3.52978C15.2944 3.52978 14.8467 3.9775 14.8467 4.52978H16.8467ZM5.84668 12.0298C5.84668 11.4775 5.39896 11.0298 4.84668 11.0298C4.29439 11.0298 3.84668 11.4775 3.84668 12.0298H5.84668ZM20.8467 12.0298C20.8467 11.4775 20.399 11.0298 19.8467 11.0298C19.2944 11.0298 18.8467 11.4775 18.8467 12.0298H20.8467ZM8.88514 23.0298C8.33286 23.0298 7.88514 23.4775 7.88514 24.0298C7.88514 24.5821 8.33286 25.0298 8.88514 25.0298V23.0298ZM15.8082 25.0298C16.3605 25.0298 16.8082 24.5821 16.8082 24.0298C16.8082 23.4775 16.3605 23.0298 15.8082 23.0298V25.0298ZM14.8467 4.52978V11.5298H16.8467V4.52978H14.8467ZM9.84668 11.5298V4.52979H7.84668V11.5298H9.84668ZM12.3467 14.0298C10.966 14.0298 9.84668 12.9105 9.84668 11.5298H7.84668C7.84668 14.0151 9.8614 16.0298 12.3467 16.0298V14.0298ZM14.8467 11.5298C14.8467 12.9105 13.7274 14.0298 12.3467 14.0298V16.0298C14.832 16.0298 16.8467 14.0151 16.8467 11.5298H14.8467ZM12.3467 0.0297852C9.8614 0.0297852 7.84668 2.04451 7.84668 4.52979H9.84668C9.84668 3.14907 10.966 2.02979 12.3467 2.02979V0.0297852ZM12.3467 18.4584C8.74779 18.4584 5.84668 15.5712 5.84668 12.0298H3.84668C3.84668 16.6938 7.6613 20.4584 12.3467 20.4584V18.4584ZM18.8467 12.0298C18.8467 15.5712 15.9456 18.4584 12.3467 18.4584V20.4584C17.0321 20.4584 20.8467 16.6938 20.8467 12.0298H18.8467ZM11.3467 19.4584V24.0298H13.3467V19.4584H11.3467ZM12.3467 23.0298H8.88514V25.0298H12.3467V23.0298ZM12.3467 25.0298H15.8082V23.0298H12.3467V25.0298Z" fill="#23DCD1"/>
<path d="M1.84668 20.0298L11.3467 11.5298L20.8467 3.02979" stroke="#23DCD1" stroke-width="2" stroke-linecap="round"/>
</svg>
