<svg width="23" height="29" viewBox="0 0 23 29" fill="none" xmlns="http://www.w3.org/2000/svg">
<path d="M9.25394 12.3075C8.57529 11.5101 7.58236 11.0072 6.47616 11.0072C4.43067 11.0072 2.77246 12.7268 2.77246 14.8481C2.77246 16.9693 4.43067 18.689 6.47616 18.689C8.52166 18.689 10.1799 16.9693 10.1799 14.8481C10.1799 13.874 9.8302 12.9846 9.25394 12.3075ZM9.25394 12.3075L17.1243 6.6856M9.25394 17.3886L17.1243 23.0093M21.291 5.24528C21.291 6.57106 20.2546 7.64582 18.9762 7.64582C17.6977 7.64582 16.6613 6.57106 16.6613 5.24528C16.6613 3.91949 17.6977 2.84473 18.9762 2.84473C20.2546 2.84473 21.291 3.91949 21.291 5.24528ZM21.291 24.4497C21.291 25.7755 20.2546 26.8502 18.9762 26.8502C17.6977 26.8502 16.6613 25.7755 16.6613 24.4497C16.6613 23.1239 17.6977 22.0491 18.9762 22.0491C20.2546 22.0491 21.291 23.1239 21.291 24.4497Z" stroke="#23DCD1" stroke-width="2" stroke-linecap="round" stroke-linejoin="round"/>
</svg>
