<svg width="19" height="22" viewBox="0 0 19 22" fill="none" xmlns="http://www.w3.org/2000/svg">
<path d="M0 19.4488C0 20.0011 0.447715 20.4488 1 20.4488C1.55228 20.4488 2 20.0011 2 19.4488H0ZM16.5541 21L16.5558 20H16.5541V21ZM5.5 20C4.94771 20 4.5 20.4477 4.5 21C4.5 21.5523 4.94772 22 5.5 22L5.5 20ZM9.5 11.6667C6.22686 11.6667 3.8469 13.0046 2.29435 14.636C0.786426 16.2205 0 18.151 0 19.4488H2C2 18.7936 2.48857 17.333 3.74315 16.0147C4.9531 14.7433 6.82314 13.6667 9.5 13.6667V11.6667ZM16.5524 22C17.9706 22.0024 19 20.792 19 19.4488H17C17 19.8237 16.7354 20.0003 16.5558 20L16.5524 22ZM19 19.4488C19 16.0118 15.9725 11.6667 9.5 11.6667V13.6667C14.9275 13.6667 17 17.175 17 19.4488H19ZM12.75 5.16667C12.75 6.89699 11.3137 8.33333 9.5 8.33333V10.3333C12.3807 10.3333 14.75 8.03871 14.75 5.16667H12.75ZM9.5 8.33333C7.68631 8.33333 6.25 6.89699 6.25 5.16667H4.25C4.25 8.03871 6.61927 10.3333 9.5 10.3333V8.33333ZM6.25 5.16667C6.25 3.43634 7.68631 2 9.5 2V0C6.61927 0 4.25 2.29462 4.25 5.16667H6.25ZM9.5 2C11.3137 2 12.75 3.43634 12.75 5.16667H14.75C14.75 2.29462 12.3807 0 9.5 0V2ZM5.5 22L16.5541 22V20L5.5 20L5.5 22Z" fill="#23DCD1"/>
</svg>
