<!-- <svg width="34" height="24" viewBox="0 0 34 24" fill="none" xmlns="http://www.w3.org/2000/svg">
<path fill-rule="evenodd" clip-rule="evenodd" d="M0.00183571 0.3125V7.59485C0.00183571 7.59485 -0.141502 9.88783 2.10473 11.8288L14.5469 23.6837L21.0172 23.6005L19.9794 10.8126L17.5261 7.93369L9.81536 0.3125H0.00183571Z" fill="currentColor"/>
<path opacity="0.06" fill-rule="evenodd" clip-rule="evenodd" d="M8.17969 17.7762L13.3027 3.75173L17.589 8.02192L8.17969 17.7762Z" fill="#161616"/>
<path opacity="0.06" fill-rule="evenodd" clip-rule="evenodd" d="M8.58203 17.2248L14.8129 5.24231L17.6211 8.05247L8.58203 17.2248Z" fill="#161616"/>
<path fill-rule="evenodd" clip-rule="evenodd" d="M8.25781 17.6914L25.1339 0.3125H33.9991V7.62657C33.9991 7.62657 33.8144 10.0645 32.5743 11.3686L21.0179 23.6875H14.5487L8.25781 17.6914Z" fill="currentColor"/>
</svg> -->

  <svg xmlns="http://www.w3.org/2000/svg" viewBox="0 0 33.39 14" width="33.39" height="14"><g id="Capa_2" data-name="Capa 2"><g id="logo"><path d="M14.19,12.16a1.66,1.66,0,0,0-1.66-1.66H1.66a1.66,1.66,0,0,0,0,3.32H12.53A1.66,1.66,0,0,0,14.19,12.16Z" style="fill:#7367f0"/><path d="M32.52.19a1.68,1.68,0,0,0-2.25.68L25.09,9.14,20.23.77A1.72,1.72,0,0,0,18.77.08H7.82a1.66,1.66,0,0,0,0,3.32h9.53a1,1,0,0,1,.78.36l5.39,9.3a1.71,1.71,0,0,0,.71.75,1.66,1.66,0,0,0,2.25-.68L33.19,2.44A1.67,1.67,0,0,0,32.52.19Z" style="fill:#7367f0"/><path d="M19.25,13.83a1.65,1.65,0,0,0,.79-2.2s-2.38-4-3.24-5.74a1.12,1.12,0,0,0-1-.63H4.48a1.66,1.66,0,0,0,0,3.32H14a.65.65,0,0,1,.58.29C15.41,10.55,17,13,17,13.05A1.65,1.65,0,0,0,19.25,13.83Z" style="fill:#7367f0"/></g></g></svg>